# xmcd CD database file
#
# Track frame offsets:
#	150
#	17467
#	33347
#
# Disc length: 674 seconds
#
# Revision: 8
# Processed by: cddbd v1.5.2PL0 Copyright (c) Steve Scherf et al.
# Submitted via: CDex 1.70beta2
#
DISCID=1502a003
DTITLE=10人祭 - ダンシング！夏祭り
DYEAR=2001
DGENRE=JPop
TTITLE0=ダンシング！夏祭り
TTITLE1=HELLO！また会おうね (10人祭 version)
TTITLE2=ダンシング！夏祭り (Instrumental)
EXTD=YEAR: 2001
EXTT0=
EXTT1=
EXTT2=
PLAYORDER=
